<svg width="133" height="39" fill="none" xmlns="http://www.w3.org/2000/svg"><path d="M115.108 38.76a10.87 10.87 0 01-1.865-.159 5.326 5.326 0 01-1.547-.516v-4.88c.37.107.807.199 1.309.278.503.08.966.12 1.389.12 1.163 0 1.997-.278 2.499-.834a6.692 6.692 0 001.23-1.825l1.468-3.372-.08 4.96L109.99 8.37h6.387l6.308 17.178h-2.38l6.308-17.178H133l-9.283 23.684c-.582 1.481-1.296 2.724-2.143 3.73-.846 1.004-1.811 1.745-2.896 2.221-1.058.502-2.248.754-3.57.754z" fill="url(#a)"/><path d="M103.414 30.032V0h5.951v30.032h-5.951z" fill="url(#b)"/><path d="M95.092 30.032V8.37h5.951v21.66h-5.951zm0-23.605V.477h5.951v5.95h-5.951z" fill="url(#c)"/><path d="M80.65 30.508c-1.56 0-2.908-.251-4.046-.754-1.137-.502-2.01-1.216-2.618-2.142-.608-.952-.913-2.076-.913-3.372 0-1.217.278-2.288.834-3.214.555-.952 1.401-1.745 2.539-2.38 1.163-.635 2.605-1.084 4.324-1.349l6.625-1.071v4.364l-5.554.992c-.846.158-1.494.436-1.944.833-.45.37-.674.912-.674 1.626 0 .662.251 1.177.754 1.548.502.37 1.123.555 1.864.555.979 0 1.838-.212 2.579-.635a4.407 4.407 0 001.706-1.706c.423-.74.634-1.547.634-2.42V15.75c0-.82-.33-1.508-.991-2.063-.635-.555-1.508-.833-2.619-.833-1.058 0-1.997.29-2.817.873a5.063 5.063 0 00-1.745 2.3l-4.76-2.26a7.735 7.735 0 012.023-3.135c.925-.873 2.036-1.547 3.332-2.023 1.296-.476 2.711-.714 4.245-.714 1.825 0 3.438.33 4.84.992 1.402.66 2.486 1.586 3.253 2.777.793 1.163 1.19 2.525 1.19 4.086v14.282h-5.554V26.54l1.349-.238c-.635.952-1.336 1.745-2.103 2.38a7.758 7.758 0 01-2.578 1.349c-.952.317-2.01.476-3.174.476z" fill="url(#d)"/><path d="M47.038 30.032V.476h9.64c3.2 0 5.978.635 8.332 1.904 2.354 1.27 4.179 3.015 5.475 5.237 1.296 2.222 1.944 4.76 1.944 7.617 0 2.856-.648 5.409-1.944 7.657-1.296 2.222-3.121 3.967-5.475 5.237-2.354 1.27-5.131 1.904-8.331 1.904h-9.64zm6.15-5.356h3.65c1.93 0 3.596-.383 4.998-1.15a8.288 8.288 0 003.253-3.293c.794-1.428 1.19-3.095 1.19-4.999 0-1.93-.396-3.597-1.19-4.999a8.028 8.028 0 00-3.253-3.253c-1.402-.767-3.068-1.15-4.999-1.15h-3.65v18.844z" fill="url(#e)"/><path d="M33.282 30.032V8.37h5.554v5.197l-.396-.754c.476-1.825 1.256-3.055 2.34-3.69 1.111-.66 2.42-.991 3.928-.991h1.27v5.157h-1.865c-1.455 0-2.632.45-3.531 1.35-.9.872-1.349 2.115-1.349 3.728v11.664h-5.95z" fill="url(#f)"/><path d="M15.67 30.508c-2.221 0-4.284-.383-6.188-1.15a15.448 15.448 0 01-4.999-3.214 15.425 15.425 0 01-3.293-4.88C.397 19.413 0 17.403 0 15.234s.383-4.179 1.15-6.03a14.964 14.964 0 013.293-4.84A15.447 15.447 0 019.442 1.15C11.346.383 13.422 0 15.671 0c2.248 0 4.324.383 6.228 1.15 1.904.767 3.557 1.839 4.96 3.214a14.177 14.177 0 013.292 4.84c.793 1.851 1.19 3.861 1.19 6.03s-.397 4.179-1.19 6.03a15.11 15.11 0 01-3.333 4.88c-1.401 1.375-3.054 2.447-4.959 3.214-1.904.767-3.967 1.15-6.189 1.15zm0-5.554c1.35 0 2.592-.238 3.73-.714a9.514 9.514 0 003.055-1.984 9.104 9.104 0 002.023-3.094c.476-1.19.714-2.5.714-3.928s-.238-2.724-.714-3.888a9.104 9.104 0 00-2.024-3.094A8.71 8.71 0 0019.4 6.268c-1.137-.476-2.38-.714-3.73-.714-1.348 0-2.605.238-3.768.714a8.796 8.796 0 00-3.015 1.984 9.103 9.103 0 00-2.024 3.094c-.476 1.164-.714 2.46-.714 3.888s.238 2.737.714 3.928a9.103 9.103 0 002.024 3.094 9.632 9.632 0 003.015 1.984c1.163.476 2.42.714 3.769.714z" fill="url(#g)"/><defs><linearGradient id="a" x1="110.068" y1="8.371" x2="139.173" y2="30.559" gradientUnits="userSpaceOnUse"><stop stop-color="#06F"/><stop offset="1" stop-color="#8FA0FF"/></linearGradient><linearGradient id="b" x1="103.434" y1="0" x2="114.88" y2="2.284" gradientUnits="userSpaceOnUse"><stop stop-color="#06F"/><stop offset="1" stop-color="#8FA0FF"/></linearGradient><linearGradient id="c" x1="95.112" y1=".476" x2="106.544" y2="2.794" gradientUnits="userSpaceOnUse"><stop stop-color="#06F"/><stop offset="1" stop-color="#8FA0FF"/></linearGradient><linearGradient id="d" x1="73.14" y1="7.895" x2="95.399" y2="27.357" gradientUnits="userSpaceOnUse"><stop stop-color="#06F"/><stop offset="1" stop-color="#8FA0FF"/></linearGradient><linearGradient id="e" x1="47.125" y1=".476" x2="76.174" y2="25.602" gradientUnits="userSpaceOnUse"><stop stop-color="#06F"/><stop offset="1" stop-color="#8FA0FF"/></linearGradient><linearGradient id="f" x1="33.325" y1="8.133" x2="52.264" y2="19.187" gradientUnits="userSpaceOnUse"><stop stop-color="#06F"/><stop offset="1" stop-color="#8FA0FF"/></linearGradient><linearGradient id="g" x1="-1.286" y1="-1.706" x2="11.994" y2="56.747" gradientUnits="userSpaceOnUse"><stop stop-color="#06F"/><stop offset="1" stop-color="#8FA0FF"/></linearGradient></defs></svg>