<svg width="671" height="196" fill="none" xmlns="http://www.w3.org/2000/svg"><path d="M79 153.8c-11.2 0-21.6-1.933-31.2-5.8-9.6-3.867-18-9.267-25.2-16.2-7.067-7.067-12.6-15.267-16.6-24.6-4-9.333-6-19.467-6-30.4s1.933-21.067 5.8-30.4c4-9.333 9.533-17.467 16.6-24.4C29.6 15.067 38 9.667 47.6 5.8 57.2 1.933 67.667 0 79 0c11.333 0 21.8 1.933 31.4 5.8 9.6 3.867 17.933 9.267 25 16.2 7.2 6.933 12.733 15.067 16.6 24.4 4 9.333 6 19.467 6 30.4s-2 21.067-6 30.4c-4 9.333-9.6 17.533-16.8 24.6-7.067 6.933-15.4 12.333-25 16.2-9.6 3.867-20 5.8-31.2 5.8zm0-28c6.8 0 13.067-1.2 18.8-3.6 5.867-2.4 11-5.733 15.4-10 4.4-4.4 7.8-9.6 10.2-15.6 2.4-6 3.6-12.6 3.6-19.8 0-7.2-1.2-13.733-3.6-19.6-2.4-6-5.8-11.2-10.2-15.6-4.4-4.4-9.533-7.733-15.4-10-5.733-2.4-12-3.6-18.8-3.6-6.8 0-13.133 1.2-19 3.6-5.733 2.267-10.8 5.6-15.2 10-4.4 4.4-7.8 9.6-10.2 15.6-2.4 5.867-3.6 12.4-3.6 19.6 0 7.2 1.2 13.8 3.6 19.8 2.4 6 5.8 11.2 10.2 15.6 4.4 4.267 9.467 7.6 15.2 10 5.867 2.4 12.2 3.6 19 3.6zm88.786 25.6V42.2h28v26.2l-2-3.8c2.4-9.2 6.333-15.4 11.8-18.6 5.6-3.333 12.2-5 19.8-5h6.4v26h-9.4c-7.333 0-13.267 2.267-17.8 6.8-4.533 4.4-6.8 10.667-6.8 18.8v58.8h-30zm69.348 0V2.4h48.6c16.134 0 30.134 3.2 42 9.6 11.867 6.4 21.067 15.2 27.6 26.4 6.534 11.2 9.8 24 9.8 38.4 0 14.4-3.266 27.267-9.8 38.6-6.533 11.2-15.733 20-27.6 26.4-11.866 6.4-25.866 9.6-42 9.6h-48.6zm31-27h18.4c9.734 0 18.134-1.933 25.2-5.8 7.067-4 12.534-9.533 16.4-16.6 4-7.2 6-15.6 6-25.2 0-9.733-2-18.133-6-25.2-3.866-7.067-9.333-12.533-16.4-16.4-7.066-3.867-15.466-5.8-25.2-5.8h-18.4v95zm138.452 29.4c-7.867 0-14.667-1.267-20.4-3.8-5.733-2.533-10.133-6.133-13.2-10.8-3.067-4.8-4.6-10.467-4.6-17 0-6.133 1.4-11.533 4.2-16.2 2.8-4.8 7.067-8.8 12.8-12 5.867-3.2 13.133-5.467 21.8-6.8l33.4-5.4v22l-28 5c-4.267.8-7.533 2.2-9.8 4.2-2.267 1.867-3.4 4.6-3.4 8.2 0 3.333 1.267 5.933 3.8 7.8s5.667 2.8 9.4 2.8c4.933 0 9.267-1.067 13-3.2 3.733-2.133 6.6-5 8.6-8.6 2.133-3.733 3.2-7.8 3.2-12.2V79.4c0-4.133-1.667-7.6-5-10.4-3.2-2.8-7.6-4.2-13.2-4.2-5.333 0-10.067 1.467-14.2 4.4-4 2.933-6.933 6.8-8.8 11.6l-24-11.4c2.133-6.133 5.533-11.4 10.2-15.8 4.667-4.4 10.267-7.8 16.8-10.2 6.533-2.4 13.667-3.6 21.4-3.6 9.2 0 17.333 1.667 24.4 5s12.533 8 16.4 14c4 5.867 6 12.733 6 20.6v72h-28v-17.6l6.8-1.2c-3.2 4.8-6.733 8.8-10.6 12-3.867 3.067-8.2 5.333-13 6.8-4.8 1.6-10.133 2.4-16 2.4zm72.801-2.4V42.2h30v109.2h-30zm0-119v-30h30v30h-30zm41.954 119V0h30v151.4h-30zm58.953 44c-3.2 0-6.334-.267-9.4-.8-2.934-.533-5.534-1.4-7.8-2.6v-24.6c1.866.533 4.066 1 6.6 1.4 2.533.4 4.866.6 7 .6 5.866 0 10.066-1.4 12.6-4.2 2.533-2.667 4.6-5.733 6.2-9.2l7.4-17-.4 25-48-121.8h32.2l31.8 86.6h-12l31.8-86.6h32.2l-46.8 119.4c-2.934 7.467-6.534 13.733-10.8 18.8-4.267 5.067-9.134 8.8-14.6 11.2-5.334 2.533-11.334 3.8-18 3.8z" fill="#2A2A2A"/></svg>