<svg width="158" height="154" fill="none" xmlns="http://www.w3.org/2000/svg"><path d="M79 153.8c-11.2 0-21.6-1.933-31.2-5.8-9.6-3.867-18-9.267-25.2-16.2-7.067-7.067-12.6-15.267-16.6-24.6-4-9.333-6-19.467-6-30.4s1.933-21.067 5.8-30.4c4-9.333 9.533-17.467 16.6-24.4C29.6 15.067 38 9.667 47.6 5.8 57.2 1.933 67.667 0 79 0c11.333 0 21.8 1.933 31.4 5.8 9.6 3.867 17.933 9.267 25 16.2 7.2 6.933 12.733 15.067 16.6 24.4 4 9.333 6 19.467 6 30.4s-2 21.067-6 30.4c-4 9.333-9.6 17.533-16.8 24.6-7.067 6.933-15.4 12.333-25 16.2-9.6 3.867-20 5.8-31.2 5.8zm0-28c6.8 0 13.067-1.2 18.8-3.6 5.867-2.4 11-5.733 15.4-10 4.4-4.4 7.8-9.6 10.2-15.6 2.4-6 3.6-12.6 3.6-19.8 0-7.2-1.2-13.733-3.6-19.6-2.4-6-5.8-11.2-10.2-15.6-4.4-4.4-9.533-7.733-15.4-10-5.733-2.4-12-3.6-18.8-3.6-6.8 0-13.133 1.2-19 3.6-5.733 2.267-10.8 5.6-15.2 10-4.4 4.4-7.8 9.6-10.2 15.6-2.4 5.867-3.6 12.4-3.6 19.6 0 7.2 1.2 13.8 3.6 19.8 2.4 6 5.8 11.2 10.2 15.6 4.4 4.267 9.467 7.6 15.2 10 5.867 2.4 12.2 3.6 19 3.6z" fill="url(#a)"/><defs><linearGradient id="a" x1="-8.202" y1="-8.6" x2="145.492" y2="165.984" gradientUnits="userSpaceOnUse"><stop stop-color="#06F"/><stop offset="1" stop-color="#8FA0FF"/></linearGradient></defs></svg>